<?xml version="1.0" standalone="no"?>
<!DOCTYPE svg PUBLIC "-//W3C//DTD SVG 1.0//EN" "http://www.w3.org/TR/2001/REC-SVG-20010904/DTD/svg10.dtd">
<svg xmlns="http://www.w3.org/2000/svg" xmlns:xlink="http://www.w3.org/1999/xlink" id="body_1" width="10" height="10">

<g transform="matrix(0.4166667 0 0 0.4166667 0 0)">
    <path d="M12 2C 7.9553776 2 4.309015 4.4364223 2.7612047 8.173166C 1.2133951 11.909909 2.0689526 16.211088 4.928932 19.071068C 7.7889123 21.931047 12.09009 22.786606 15.826834 21.238796C 19.563578 19.690985 22 16.044622 22 12C 21.993938 6.4796667 17.520332 2.0060625 12 2zM12 20C 8.764302 20 5.847212 18.050861 4.608964 15.061467C 3.370716 12.072072 4.055162 8.63113 6.343146 6.343146C 8.63113 4.055162 12.072072 3.370716 15.061467 4.608964C 18.050861 5.847212 20 8.764302 20 12C 19.99504 16.416222 16.416222 19.99504 12 20z" stroke="none" fill="#000000" fill-rule="nonzero" />
    <path d="M12 12.586L8.707 9.293L7.2929997 10.707001L12 15.414L16.707 10.707L15.293001 9.292999L12 12.586z" stroke="none" fill="#000000" fill-rule="nonzero" />
</g>
</svg>